# xmcd
#
# Track frame offsets:
#	150
#	13970
#	27989
#	42421
#	57640
#	74330
#	87992
#	101267
#	118166
#	141049
#	151855
#	175329
#	195166
#	207824
#	221561
#	235497
#	248730
#	260881
#	277061
#	291796
#
# Disc length: 4101 seconds
#
# Revision: 0
# Processed by: cddbd v1.5.2PL0 Copyright (c) Steve Scherf et al.
# Submitted via: EasyCDDAExtractor 11.1.0.1
#
DISCID=31100314
DTITLE=Various Artist - 0530 Love Through The Years
DYEAR=1900
DGENRE=Oldies
TTITLE0=Tony Bennett - Tony Bennett - Stranger In Paradise
TTITLE1=Dean Martin - Dean Martin - That's Amore
TTITLE2=Perry Como - Perry Como - No Other Love
TTITLE3=Rosemary Clooney - Rosemary Clooney - Secret Love 
TTITLE4=Doris Day - Doris Day - Secret Love
TTITLE5=Paul Flood - Paul Plood - For All We Know
TTITLE6=Charlie Rich - Charlie Rich - The Most Beautiful Girl In The World
TTITLE7=Brad - Bread - Make It With You
TTITLE8=The Right Blend - The Right Blend -Stil Cray After All These Years
TTITLE9=Marcia Griffith - Marcia Griffith - I Just Don't Want To Be Lonely
TTITLE10=Honeylipz - Honylipz - Feel Like Making Love
TTITLE11=Jose Feliciano - Jose Feliciano - Right Here Waiting
TTITLE12=Sarah Vaughan - Sarah Vaughan - What A Difference A Day Makes
TTITLE13=Peggy Lee - Peggy Lee - Fever
TTITLE14=Billie Hiliday - Billie Holiday - The Man I Love
TTITLE15=Temptations - Temptations - My Girl
TTITLE16=Crispian St Peters  - Crispian St Peters - You Were On My Mind
TTITLE17=Harold Melvin And the Blue Notes - Harold Melvin - The Love I Lost
TTITLE18=George McCrae - George McCrae - Rock our Baby
TTITLE19=Elvis Presley - Elvis Presley - I Love You Because
EXTD=
EXTT0=
EXTT1=
EXTT2=
EXTT3=
EXTT4=
EXTT5=
EXTT6=
EXTT7=
EXTT8=
EXTT9=
EXTT10=
EXTT11=
EXTT12=
EXTT13=
EXTT14=
EXTT15=
EXTT16=
EXTT17=
EXTT18=
EXTT19=
PLAYORDER=
